<?xml version="1.0" encoding="iso-8859-1"?>
<!-- Generator: Adobe Illustrator 19.0.0, SVG Export Plug-In . SVG Version: 6.00 Build 0)  -->
<svg version="1.1" id="Capa_1" xmlns="http://www.w3.org/2000/svg" xmlns:xlink="http://www.w3.org/1999/xlink" x="0px" y="0px"
	 viewBox="0 0 368 368" style="enable-background:new 0 0 368 368;" xml:space="preserve">
<g>
	<g>
		<path d="M360,160h-88v-48c17.648,0,32-14.352,32-32s-14.352-32-32-32h-64V24c0-13.232-10.768-24-24-24h-64
			c-13.232,0-24,10.768-24,24v24H32C14.352,48,0,62.352,0,80s14.352,32,32,32v232c0,13.232,10.768,24,24,24h192
			c13.232,0,24-10.768,24-24v-40h88c4.424,0,8-3.584,8-8V192v-24C368,163.584,364.424,160,360,160z M112,24c0-4.408,3.584-8,8-8h64
			c4.416,0,8,3.592,8,8v24h-80V24z M32,96c-8.824,0-16-7.176-16-16c0-8.824,7.176-16,16-16h72h96h72c8.824,0,16,7.176,16,16
			c0,8.824-7.176,16-16,16h-8H40H32z M256,344c0,4.416-3.584,8-8,8H56c-4.416,0-8-3.592-8-8v-40h72c4.424,0,8-3.584,8-8
			c0-4.416-3.576-8-8-8H48V112h208v48h-88c-4.424,0-8,3.584-8,8v24v104c0,4.416,3.576,8,8,8h88V344z M352,288H176v-83.056
			l84.424,42.208c1.12,0.568,2.352,0.848,3.576,0.848s2.456-0.28,3.576-0.84L352,204.944V288z M352,187.056l-88,44l-88-44V176h176
			V187.056z"/>
	</g>
</g>
<g>
</g>
<g>
</g>
<g>
</g>
<g>
</g>
<g>
</g>
<g>
</g>
<g>
</g>
<g>
</g>
<g>
</g>
<g>
</g>
<g>
</g>
<g>
</g>
<g>
</g>
<g>
</g>
<g>
</g>
</svg>
