<svg width="68" height="15" viewBox="0 0 68 15" fill="none" xmlns="http://www.w3.org/2000/svg">
<path fill-rule="evenodd" clip-rule="evenodd" d="M37.183 3.64007C35.8267 1.30729 33.373 0 30.8486 0C29.5943 0 28.3322 0.320953 27.1719 0.99417C23.6755 3.02948 22.4839 7.50716 24.5222 10.9985C26.5604 14.4898 31.0446 15.6797 34.541 13.6444C35.9286 12.8381 36.9478 11.6561 37.5514 10.294L34.4156 8.47002C34.1412 9.31545 33.569 10.067 32.738 10.5523C31.5072 11.2647 30.0333 11.202 28.8966 10.5132L35.325 6.77914L37.8964 5.28398C37.7317 4.72035 37.4965 4.17238 37.183 3.64007ZM27.1092 7.42888C27.07 6.0981 27.7442 4.79863 28.975 4.07845C30.2058 3.36609 31.6718 3.42871 32.8085 4.11759L27.1092 7.42888ZM15.7808 6.32524V14.4039H19.6456V6.32524C19.6456 5.49546 19.9043 4.86138 20.4218 4.43084C20.9235 4.01595 21.7466 3.79676 22.8834 3.78893V0.10972C20.3747 0.117548 18.5638 0.642032 17.4584 1.66751C16.3374 2.71648 15.7808 4.26645 15.7808 6.32524ZM45.8531 0.10972C47.6719 0.10972 49.2319 0.642032 50.5333 1.70665C51.8268 2.77911 52.4775 4.26645 52.4775 6.17651V14.4039H48.6126V6.17651C48.6126 5.41718 48.3461 4.83007 47.8208 4.41518C47.2956 4.00029 46.6371 3.78893 45.8531 3.78893C45.124 3.78893 44.4734 4.00029 43.9246 4.41518C43.368 4.83007 43.0936 5.41718 43.0936 6.17651V14.4039H39.2287V6.16868C39.2287 4.25862 39.8794 2.77128 41.1808 1.70665C42.4821 0.642032 44.0343 0.10972 45.8531 0.10972ZM65.1151 0.211618C64.5663 0.211618 64.1273 0.649992 64.1273 1.19796V1.20579C63.265 0.49343 62.1283 0.266415 61.3286 0.195962L61.3074 0.194842C61.1662 0.187404 61.0315 0.180306 60.8896 0.180306C56.9385 0.180306 53.74 3.38983 53.7714 7.34303C53.8027 11.2649 57.0561 14.3962 60.9759 14.3962H61.117C61.9166 14.3492 63.1866 14.1457 64.1195 13.3785V13.3863C64.1195 13.9421 64.5742 14.3962 65.1308 14.3962H68V0.211618H65.1151ZM60.8818 11.0692C58.7965 11.0692 57.1031 9.37834 57.1031 7.29606C57.1031 5.21378 58.7965 3.52291 60.8818 3.52291C62.9671 3.52291 64.6604 5.21378 64.6604 7.29606C64.6604 9.37834 62.9671 11.0692 60.8818 11.0692ZM11.3517 0.172518H14.2288V0.211659H14.2445V14.3884H11.3831C10.9989 14.3884 10.6618 14.177 10.4894 13.8561C10.411 13.723 10.3639 13.5586 10.3561 13.3864C9.41536 14.1535 8.16104 14.3492 7.36925 14.3962H7.22814C4.57839 14.3962 2.24222 12.9715 0.987905 10.8422C0.368585 9.80892 0.00796867 8.60339 0.000129185 7.31176C-0.0233893 3.35856 3.16728 0.149034 7.12623 0.149034C7.26807 0.149034 7.4028 0.156132 7.54396 0.16357L7.56524 0.16469C8.36486 0.235143 9.50159 0.462158 10.3639 1.17452V1.15886C10.3639 0.610892 10.8029 0.172518 11.3517 0.172518ZM10.066 11.0301L11.0381 11.3667C11.1636 11.4137 11.2812 11.2963 11.2341 11.171L10.897 10.2003C10.6697 9.52711 10.6148 8.7991 10.7716 8.10239C10.9911 7.16302 10.8421 6.14537 10.3169 5.29993C10.1444 5.01029 9.92492 4.74413 9.65838 4.50929C8.95283 3.86739 8.04345 3.54643 7.1419 3.54643C6.22468 3.54643 5.30746 3.87521 4.59407 4.53278C3.2692 5.75396 3.03401 7.6875 3.88852 9.15919C4.04531 9.42535 4.24129 9.67585 4.46864 9.90286C5.40938 10.8422 6.73425 11.1788 7.94937 10.9049C8.64709 10.7483 9.384 10.7953 10.066 11.0301Z" fill="#7739EB"/>
<path d="M9.77587 4.64209C9.77587 4.64209 10.1757 5.04132 10.4736 5.6206C10.599 5.85545 10.7401 6.26251 10.8107 6.64609C10.8734 7.00618 10.8734 7.35062 10.8656 7.49152C10.8577 7.68722 10.8264 7.91424 10.7793 8.09429C10.7323 8.2665 10.6539 8.72836 10.6853 9.1276C10.6931 9.22153 10.7166 9.64425 10.8342 10.0357C10.8969 10.247 10.9596 10.4036 10.9988 10.5288C11.0615 10.701 11.0929 10.795 11.1086 10.842C11.1243 10.8889 11.234 11.2099 11.2419 11.2334C11.2419 11.249 11.2419 11.2725 11.2419 11.296C11.234 11.3351 11.2105 11.3664 11.1713 11.3899C11.1478 11.3977 11.1243 11.4134 11.0929 11.4134C11.0772 11.4134 11.0694 11.4134 11.0459 11.4056C11.038 11.4056 11.0223 11.3977 11.0067 11.3899C10.9675 11.3743 10.9361 11.3664 10.9283 11.3664C10.8264 11.3273 10.7088 11.2882 10.6069 11.2568C10.3325 11.1629 10.0424 11.0611 9.98754 11.0455C9.21143 10.8106 8.74106 10.8654 8.66266 10.8654C8.45884 10.8576 7.98847 10.9437 7.94927 10.9515C7.82384 10.9985 7.26723 11.0611 7.02421 11.0455C5.78557 10.975 5.0173 10.4427 4.67236 10.1453L8.7097 14.1924C9.27414 14.0436 9.8621 13.7931 10.3638 13.3783V13.3861C10.3638 13.9419 10.8185 14.3959 11.3751 14.3959H14.2365V9.09628L9.77587 4.64209Z" fill="#7739EB"/>
</svg>
